<svg id="eGdKtyNYTxC1" xmlns="http://www.w3.org/2000/svg" xmlns:xlink="http://www.w3.org/1999/xlink" viewBox="0 0 300 300" shape-rendering="geometricPrecision" text-rendering="geometricPrecision">
<style><![CDATA[
#eGdKtyNYTxC2_tr {animation: eGdKtyNYTxC2_tr__tr 3000ms linear infinite normal forwards}@keyframes eGdKtyNYTxC2_tr__tr { 0% {transform: translate(96.391407px,109.68323px) rotate(-359.999996deg)} 100% {transform: translate(96.391407px,109.68323px) rotate(-404.999995deg)}} #eGdKtyNYTxC14_tr {animation: eGdKtyNYTxC14_tr__tr 3000ms linear infinite normal forwards}@keyframes eGdKtyNYTxC14_tr__tr { 0% {transform: translate(239.368085px,197.281842px) rotate(-359.999996deg)} 100% {transform: translate(239.368085px,197.281842px) rotate(-224.999992deg)}}
]]></style>
<g id="eGdKtyNYTxC2_tr" transform="translate(96.391407,109.68323) rotate(-359.999996)">
<g transform="scale(1.200498,1.200495) translate(-150.030887,-149.974071)"><g transform="matrix(.707107 0.707107-.707107 0.707107 149.999117-62.169945)">
<ellipse rx="30" ry="30" transform="matrix(1.907538 0 0 1.907496 150.000001 150)" fill="#ffc6b3" stroke-width="0"/>
<ellipse style="isolation:isolate" rx="30" ry="30" transform="translate(150 150)" fill="#ffd6c8" stroke-width="0"/>
<path d="M75.830422,138.435081v25.481425l21.249998,4.93095v-35.779264l-21.249998,5.366889Z" transform="translate(-.02735-.957629)" fill="#ffc6b3" stroke-width="0.6"/>
<path d="M75.830422,138.435081v25.481425l21.249998,4.93095v-35.779264l-21.249998,5.366889Z" transform="matrix(-.998159-.003296 0.003302-.999995 299.392005 301.206913)" fill="#ffc6b3" stroke-width="0.6"/>
<path d="M75.830422,138.435081v25.481425l21.249998,4.93095v-35.779264l-21.249998,5.366889Z" transform="matrix(.001264-.999999 0.999999 0.001264-1.088772 299.83177)" fill="#ffc6b3" stroke-width="0.6"/>
<path d="M75.830422,138.435081v25.481425l21.249998,4.93095v-35.779264l-21.249998,5.366889Z" transform="matrix(-.00205 0.999998-.999998-.00205 301.134745 0.27294)" fill="#ffc6b3" stroke-width="0.6"/>
</g>
<path d="M75.830422,138.435081v25.481425l21.249998,4.93095v-35.779264l-21.249998,5.366889Z" transform="matrix(-1 0 0-1 299.566692 300.931827)" fill="#ffc6b3" stroke-width="0.6"/>
<path d="M75.830422,138.435081v25.481425l21.249998,4.93095v-35.779264l-21.249998,5.366889Z" transform="matrix(0-1 1 0-.958749 299.521531)" fill="#ffc6b3" stroke-width="0.6"/>
<path d="M75.830422,138.435081v25.481425l21.249998,4.93095v-35.779264l-21.249998,5.366889Z" transform="translate(.453408-.957824)" fill="#ffc6b3" stroke-width="0.6"/>
<path d="M75.830422,138.435081v25.481425l21.249998,4.93095v-35.779264l-21.249998,5.366889Z" transform="matrix(0 1-1 0 300.957824 0.42861)" fill="#ffc6b3" stroke-width="0.6"/>
</g></g><g id="eGdKtyNYTxC14_tr" transform="translate(239.368085,197.281842) rotate(-359.999996)">
<g transform="scale(0.753858,0.753857) translate(-150.030887,-149.974071)">
<g transform="matrix(.707107 0.707107-.707107 0.707107 149.999117-62.169945)">
<ellipse rx="30" ry="30" transform="matrix(1.907538 0 0 1.907496 150.000001 150)" fill="#ffc6b3" stroke-width="0"/>
<ellipse style="isolation:isolate" rx="30" ry="30" transform="translate(150 150)" fill="#ffd6c8" stroke-width="0"/>
<path d="M75.830422,138.435081v25.481425l21.249998,4.93095v-35.779264l-21.249998,5.366889Z" transform="translate(-.02735-.957629)" fill="#ffc6b3" stroke-width="0.6"/>
<path d="M75.830422,138.435081v25.481425l21.249998,4.93095v-35.779264l-21.249998,5.366889Z" transform="matrix(-.998159-.003296 0.003302-.999995 299.392005 301.206913)" fill="#ffc6b3" stroke-width="0.6"/>
<path d="M75.830422,138.435081v25.481425l21.249998,4.93095v-35.779264l-21.249998,5.366889Z" transform="matrix(.001264-.999999 0.999999 0.001264-1.088772 299.83177)" fill="#ffc6b3" stroke-width="0.6"/>
<path d="M75.830422,138.435081v25.481425l21.249998,4.93095v-35.779264l-21.249998,5.366889Z" transform="matrix(-.00205 0.999998-.999998-.00205 301.134745 0.27294)" fill="#ffc6b3" stroke-width="0.6"/>
</g><path d="M75.830422,138.435081v25.481425l21.249998,4.93095v-35.779264l-21.249998,5.366889Z" transform="matrix(-1 0 0-1 299.566692 300.931827)" fill="#ffc6b3" stroke-width="0.6"/>
<path d="M75.830422,138.435081v25.481425l21.249998,4.93095v-35.779264l-21.249998,5.366889Z" transform="matrix(0-1 1 0-.958749 299.521531)" fill="#ffc6b3" stroke-width="0.6"/>
<path d="M75.830422,138.435081v25.481425l21.249998,4.93095v-35.779264l-21.249998,5.366889Z" transform="translate(.453408-.957824)" fill="#ffc6b3" stroke-width="0.6"/>
<path d="M75.830422,138.435081v25.481425l21.249998,4.93095v-35.779264l-21.249998,5.366889Z" transform="matrix(0 1-1 0 300.957824 0.42861)" fill="#ffc6b3" stroke-width="0.6"/></g></g></svg>
